<svg width="216" height="138" viewBox="0 0 216 138" fill="none" xmlns="http://www.w3.org/2000/svg">
<rect width="56.7543" height="56.7543" transform="matrix(0.718059 0.695983 -0.718059 0.695982 94.7529 0)" fill="#2C4EFF"/>
<rect width="56.7543" height="56.7543" transform="matrix(0.718059 -0.695982 0.718059 0.695983 65.5267 39.5)" fill="black"/>
<rect width="56.7543" height="56.7543" transform="matrix(-0.718059 0.695982 -0.718059 -0.695983 160 39.5)" fill="white"/>
<path d="M75.8496 127.865L73.4941 124.631C72.1465 125.158 70.6348 125.422 68.959 125.422C65.3613 125.422 62.5137 124.244 60.416 121.889C58.3184 119.545 57.2695 116.357 57.2695 112.326C57.2695 108.295 58.3184 105.102 60.416 102.746C62.5137 100.391 65.3613 99.2129 68.959 99.2129C72.5566 99.2129 75.4043 100.391 77.502 102.746C79.5996 105.102 80.6484 108.295 80.6484 112.326C80.6484 117.283 79.1133 120.922 76.043 123.242L79.4004 127.865H75.8496ZM68.959 122.504C69.9082 122.504 70.8047 122.369 71.6484 122.1L68.4844 117.74H72.0352L74.1973 120.693C76.3301 118.889 77.3965 116.1 77.3965 112.326C77.3965 109.197 76.6406 106.713 75.1289 104.873C73.6055 103.045 71.5488 102.131 68.959 102.131C66.3691 102.131 64.3125 103.045 62.7891 104.873C61.2773 106.713 60.5215 109.197 60.5215 112.326C60.5215 115.443 61.2773 117.922 62.7891 119.762C64.3125 121.59 66.3691 122.504 68.959 122.504ZM100.002 125H97.1191V121.871H97.0488C95.8535 124.074 93.7852 125.176 90.8438 125.176C88.7695 125.176 87.1289 124.549 85.9219 123.295C84.7148 122.053 84.1113 120.354 84.1113 118.197V106.051H87.1699V117.67C87.1699 119.217 87.5684 120.4 88.3652 121.221C89.1504 122.041 90.2871 122.451 91.7754 122.451C93.334 122.451 94.582 121.959 95.5195 120.975C96.4688 119.99 96.9434 118.684 96.9434 117.055V106.051H100.002V125ZM111.727 108.564C110.238 108.564 109.008 109.057 108.035 110.041C107.051 111.025 106.506 112.32 106.4 113.926H116.824C116.789 112.32 116.303 111.025 115.365 110.041C114.439 109.057 113.227 108.564 111.727 108.564ZM119.777 119.586C119.52 121.215 118.652 122.551 117.176 123.594C115.699 124.648 113.947 125.176 111.92 125.176C109.26 125.176 107.145 124.314 105.574 122.592C104.016 120.869 103.236 118.537 103.236 115.596C103.236 112.654 104.016 110.299 105.574 108.529C107.133 106.76 109.201 105.875 111.779 105.875C114.311 105.875 116.314 106.707 117.791 108.371C119.268 110.047 120.006 112.314 120.006 115.174V116.369H106.4V116.545C106.4 118.35 106.91 119.791 107.93 120.869C108.949 121.947 110.303 122.486 111.99 122.486C113.174 122.486 114.199 122.223 115.066 121.695C115.922 121.18 116.484 120.477 116.754 119.586H119.777ZM139.025 125H136.143V121.871H136.072C134.877 124.074 132.809 125.176 129.867 125.176C127.793 125.176 126.152 124.549 124.945 123.295C123.738 122.053 123.135 120.354 123.135 118.197V106.051H126.193V117.67C126.193 119.217 126.592 120.4 127.389 121.221C128.174 122.041 129.311 122.451 130.799 122.451C132.357 122.451 133.605 121.959 134.543 120.975C135.492 119.99 135.967 118.684 135.967 117.055V106.051H139.025V125ZM150.75 108.564C149.262 108.564 148.031 109.057 147.059 110.041C146.074 111.025 145.529 112.32 145.424 113.926H155.848C155.812 112.32 155.326 111.025 154.389 110.041C153.463 109.057 152.25 108.564 150.75 108.564ZM158.801 119.586C158.543 121.215 157.676 122.551 156.199 123.594C154.723 124.648 152.971 125.176 150.943 125.176C148.283 125.176 146.168 124.314 144.598 122.592C143.039 120.869 142.26 118.537 142.26 115.596C142.26 112.654 143.039 110.299 144.598 108.529C146.156 106.76 148.225 105.875 150.803 105.875C153.334 105.875 155.338 106.707 156.814 108.371C158.291 110.047 159.029 112.314 159.029 115.174V116.369H145.424V116.545C145.424 118.35 145.934 119.791 146.953 120.869C147.973 121.947 149.326 122.486 151.014 122.486C152.197 122.486 153.223 122.223 154.09 121.695C154.945 121.18 155.508 120.477 155.777 119.586H158.801Z" fill="#2C4EFF"/>
</svg>
